Coordinates
version=1
nRows=16
nColumns=36
inDegrees=yes

Units are S.I. units (second, meters, Newtons, ...)
If the header above contains a line with 'inDegrees', this indicates whether rotational values are in degrees (yes) or radians (no).

endheader
time	pelvis_tilt	pelvis_list	pelvis_rotation	pelvis_tx	pelvis_ty	pelvis_tz	hip_flexion_r	hip_adduction_r	hip_rotation_r	knee_angle_r	knee_angle_r_beta	ankle_angle_r	subtalar_angle_r	mtp_angle_r	hip_flexion_l	hip_adduction_l	hip_rotation_l	knee_angle_l	knee_angle_l_beta	ankle_angle_l	subtalar_angle_l	mtp_angle_l	lumbar_extension	lumbar_bending	lumbar_rotation	arm_flex_r	arm_add_r	arm_rot_r	elbow_flex_r	pro_sup_r	arm_flex_l	arm_add_l	arm_rot_l	elbow_flex_l	pro_sup_l
      0.68166670	      3.98002841	     -1.22090773	      2.94429659	     -0.86571147	      1.31720414	     -0.09247834	     -7.87120414	      1.31030644	     -9.59371471	      2.86957855	      0.05008359	      1.76936273	    -12.55149520	     -7.49999987	     -8.85346350	     -3.68601696	      6.09039686	      1.54023814	      0.02688223	      5.09325159	     -3.89677819	     -7.49999987	    -25.31869652	      0.88613127	      1.31524753	      5.76567874	     -4.93909051	     -1.21843776	     25.94239048	     85.94507667	      6.66308674	     -6.27915655	     16.06306694	     26.89161603	     88.32030632
      0.68333330	      4.02024545	     -1.24041042	      2.97161384	     -0.86552647	      1.31612956	     -0.09276893	     -7.92775589	      1.34509902	     -9.57867589	      2.90555463	      0.05071149	      1.78146298	    -12.51538012	     -7.49999987	     -8.88425613	     -3.71436449	      6.15714473	      1.56553485	      0.02732374	      5.16271602	     -3.87481991	     -7.49999987	    -25.39595132	      0.90909689	      1.28257316	      5.77350387	     -4.92097285	     -1.41177887	     26.01029553	     86.13431997	      6.63164151	     -6.28085762	     15.85042033	     26.98490022	     88.46080412
      0.68500000	      4.02648515	     -1.27576537	      2.98353356	     -0.86577648	      1.31730283	     -0.09257815	     -7.91826694	      1.38524438	     -9.61869712	      2.95655003	      0.05160153	      1.88694589	    -12.42595713	     -7.49999987	     -8.88544353	     -3.76370678	      6.22549741	      1.57689643	      0.02752203	      5.17991693	     -3.93873785	     -7.49999987	    -25.42225662	      0.95126014	      1.28878462	      5.79835711	     -4.97835280	     -0.87540840	     25.99596422	     83.56784525	      6.66516148	     -6.32746763	     16.37771048	     26.99458688	     85.78382194
      0.68666670	      4.02285007	     -1.29094465	      2.95999385	     -0.86654411	      1.31547006	     -0.09246409	     -7.86716087	      1.40250222	     -9.45145378	      3.03232459	      0.05292405	      1.82465628	    -12.67009026	     -7.49999987	     -8.87245269	     -3.78376519	      6.19588720	      1.62495470	      0.02836081	      5.19363822	     -4.01735837	     -7.49999987	    -25.44866317	      0.94263216	      1.31250252	      5.80131177	     -4.93623087	     -1.47112094	     26.07225320	     85.99951527	      6.67152886	     -6.30415552	     15.86418037	     27.04189801	     88.40719125
      0.68833330	      4.05827847	     -1.30727021	      2.92849156	     -0.86644565	      1.31775386	     -0.09273392	     -7.90559909	      1.42655413	     -9.47971890	      3.00409531	      0.05243135	      1.79428480	    -12.58449569	     -7.49999987	     -8.91218744	     -3.81806782	      5.70414148	      1.65773289	      0.02893290	      5.56096536	     -3.16183152	     -7.49999987	    -25.52266459	      0.95161115	      1.35173165	      5.81651476	     -4.89305948	     -1.42306906	     26.13172167	     83.23784770	      6.66525693	     -6.24768698	     15.80006110	     27.07566507	     85.43709568
      0.69000000	      4.02651027	     -1.30522844	      2.89081979	     -0.86604309	      1.31693667	     -0.09242155	     -7.83225686	      1.40988140	     -9.38516696	      3.04516944	      0.05314823	      1.76444846	    -12.76762500	     -7.49999987	     -8.91063344	     -3.79798586	      6.19474555	      1.61185929	      0.02813225	      5.00648543	     -4.32186441	     -7.49999987	    -25.47381400	      0.92361569	      1.39450947	      5.90433900	     -5.03904889	     -0.49754220	     25.99247064	     81.91055460	      6.72282049	     -6.38835136	     16.79418219	     27.02520778	     84.03464230
      0.69166670	      4.09593454	     -1.29856493	      2.96533512	     -0.86587435	      1.31837636	     -0.09264784	     -7.92683880	      1.41980267	     -9.57029579	      3.04443177	      0.05313536	      1.66241227	    -12.71390220	     -7.49999987	     -8.97492714	     -3.80819253	      6.17646462	      1.62894482	      0.02843045	      4.96325935	     -4.21871701	     -7.49999987	    -25.60561549	      0.96524347	      1.29527169	      5.90637538	     -4.93635595	     -1.52166480	     26.20664301	     86.17096170	      6.68245227	     -6.31181779	     15.67146878	     27.13986288	     88.39420159
      0.69333330	      4.12585604	     -1.29257510	      2.93447753	     -0.86560194	      1.31894836	     -0.09253861	     -7.97799076	      1.42978179	     -9.55438455	      3.02435133	      0.05278489	      1.49481937	    -12.88810797	     -7.49999987	     -9.03572576	     -3.80260597	      6.09698170	      1.59733192	      0.02787870	      4.85307659	     -4.26145381	     -7.49999987	    -25.64146688	      0.94516375	      1.35519436	      5.91447054	     -4.94279815	     -1.44706521	     26.20921725	     86.19001341	      6.71527509	     -6.32954134	     15.85343831	     27.09774996	     88.33681417
      0.69500000	      4.17700593	     -1.28361606	      2.92503980	     -0.86558443	      1.31778745	     -0.09259953	     -8.04009106	      1.43075794	     -9.47606336	      3.00295737	      0.05241149	      1.31473754	    -13.21198920	     -7.49999987	     -9.10590512	     -3.79187181	      6.10804676	      1.57077128	      0.02741513	      4.74246089	     -4.40993305	     -7.49999987	    -25.71582466	      0.92194562	      1.37679594	      5.92835314	     -5.07112434	     -0.11566540	     26.27737098	     81.34009960	      6.75325185	     -6.47948177	     17.12760903	     27.20009243	     83.26054815
      0.69666670	      4.21618639	     -1.25573717	      2.94792940	     -0.86551287	      1.31788095	     -0.09245717	     -8.06098742	      1.39968782	     -9.68519446	      3.06110294	      0.05342632	      1.53156712	    -12.76003143	     -7.49999987	     -9.16027161	     -3.76960905	      6.02863613	      1.54874355	      0.02703067	      4.72741381	     -4.35392948	     -7.49999987	    -25.76520756	      0.90495155	      1.31038735	      5.97465769	     -5.00181126	     -0.13674803	     26.23634725	     79.77723050	      6.75066553	     -6.45349176	     17.12021766	     27.07905212	     81.60418932
      0.69833330	      4.16893309	     -1.24831115	      2.94457833	     -0.86572162	      1.31844773	     -0.09277437	     -8.01205676	      1.38867327	     -9.63884591	      3.01863196	      0.05268507	      1.34424618	    -13.08167343	     -7.49999987	     -9.12316576	     -3.75002509	      6.02446208	      1.52999919	      0.02670352	      4.59129823	     -4.49478250	     -7.49999987	    -25.68426065	      0.87872426	      1.30395533	      5.97538981	     -5.01713034	      0.05740148	     26.18641153	     78.62575062	      6.75992497	     -6.47348921	     17.31243257	     26.98873922	     80.40977440
      0.70000000	      4.11436936	     -1.22488590	      2.99210910	     -0.86697341	      1.31718287	     -0.09325025	     -7.91987341	      1.34797772	     -9.68392470	      3.00840172	      0.05250652	      1.45256167	    -13.01087206	     -7.49999987	     -9.01473945	     -3.70970318	      6.10573095	      1.56905515	      0.02738518	      4.59921962	     -4.59614807	     -7.49999987	    -25.68539860	      0.88293132	      1.30972098	      5.91206411	     -4.94486272	     -1.28913056	     26.26904882	     85.70238088	      6.83496015	     -6.43740047	     16.43202960	     26.98476078	     87.90780634
      0.70166670	      4.07048018	     -1.20433963	      3.00435597	     -0.86610477	      1.31654224	     -0.09296493	     -7.88318184	      1.33028974	     -9.50907820	      2.92688208	      0.05108373	      1.19422392	    -13.46024923	     -7.49999987	     -8.98173652	     -3.68078027	      6.03807150	      1.53212260	      0.02674058	      4.46132369	     -4.56863767	     -7.49999987	    -25.62901075	      0.84495809	      1.29621537	      5.88438477	     -5.06140798	     -0.35513435	     26.32731142	     82.89318417	      6.83562696	     -6.54453965	     17.24865554	     27.03098739	     84.84222495
      0.70333330	      3.94778829	     -1.24058754	      3.02665757	     -0.86583243	      1.31499643	     -0.09252288	     -7.78678465	      1.37157167	     -9.62214674	      2.82574472	      0.04931855	      1.35425009	    -13.23482974	     -7.49999987	     -8.85189289	     -3.72187163	      5.78769921	      1.54998381	      0.02705232	      4.75470679	     -3.97460063	     -7.49999987	    -25.39937678	      0.87973221	      1.24834186	      5.76386886	     -4.96299559	     -0.55414650	     26.44304259	     79.09254769	      6.64793951	     -6.41797840	     16.90889877	     27.12196734	     80.83407334
      0.70500000	      4.03929399	     -1.20857544	      3.02996036	     -0.86513971	      1.31437045	     -0.09279220	     -7.85292566	      1.34183563	     -9.60132247	      2.85689080	      0.04986215	      1.40594757	    -13.46732504	     -7.49999987	     -8.96619324	     -3.68387824	      5.98213376	      1.52890032	      0.02668434	      4.60322111	     -4.44063983	     -7.49999987	    -25.57626862	      0.82602925	      1.27154320	      5.76720010	     -4.90106607	     -1.68203680	     26.44958046	     85.98522172	      6.71138008	     -6.43243526	     16.01936704	     27.14085101	     88.20733377
      0.70666670	      3.97145623	     -1.23115623	      3.09284468	     -0.86619937	      1.31749889	     -0.09156125	     -7.78831362	      1.38199077	     -9.59360446	      2.80753476	      0.04900073	      1.42309450	    -13.49979075	     -7.49999987	     -8.86334542	     -3.73037998	      6.20046963	      1.53307509	      0.02675721	      4.58499360	     -4.69257228	     -7.49999987	    -25.48525780	      0.87880813	      1.21242720	      5.68955479	     -4.83765890	     -1.62601297	     26.59084951	     82.58947463	      6.60634477	     -6.39297014	     15.90989508	     27.29096844	     84.64038638
